<?xml version='1.0' encoding='utf-8'?>
<!-- Generator: Adobe Illustrator 20.0.0, SVG Export Plug-In . SVG Version: 6.00 Build 0)  -->
<svg xmlns="http://www.w3.org/2000/svg" y="0px" gorn="0" id="Layer_1" height="0.354333in" width="1.37796in" version="1.2" xml:space="preserve" baseProfile="tiny"  xmlns:xml="http://www.w3.org/XML/1998/namespace" x="0px" viewBox="0 0 99.213 25.512">
    <desc >
        <referenceFile >clip-top-blue.svg</referenceFile>
    </desc>
    <path fill="#A0A0A0"  d="M82.205,17.452l14.365-0.974c1.488-0.101,2.643-1.337,2.643-2.828v-1.789c0-1.491-1.155-2.727-2.643-2.828L82.205,8.06V17.452z"/>
    <path fill="#DCDCDC"  d="M81.638,16.513l14.365-0.779c1.488-0.081,2.643-1.07,2.643-2.263V12.04c0-1.193-1.155-2.182-2.643-2.263L81.638,8.999V16.513z"/>
    <path fill="#1B5BB3"  d="M85.039,5.549c0-0.734-0.568-1.347-1.299-1.412C59.516,1.991,40.755,0,34.016,0c-7.891,0-8.828,0.313-16.141,3.625c-6.263,2.837-7.23,3.411-16.459,3.458C0.637,7.087,0,7.721,0,8.5v8.512c0,0.779,0.637,1.413,1.416,1.417c9.228,0.047,10.196,0.621,16.459,3.458c7.312,3.312,8.25,3.625,16.141,3.625c6.739,0,25.5-1.991,49.724-4.137c0.731-0.065,1.299-0.678,1.299-1.412V5.549z"/>
    <path fill="#418DD9"  d="M84.614,6.991c0-0.587-0.562-1.078-1.286-1.13c-23.982-1.717-42.555-3.31-49.227-3.31c-7.812,0-8.74,0.25-15.979,2.9c-6.2,2.27-7.158,2.729-16.294,2.767c-0.772,0.003-1.402,0.51-1.402,1.133v6.809c0,0.624,0.63,1.13,1.402,1.133c9.136,0.038,10.094,0.497,16.294,2.767c7.239,2.65,8.167,2.9,15.979,2.9c6.672,0,25.245-1.593,49.227-3.31c0.724-0.052,1.286-0.542,1.286-1.13V6.991z"/>
    <ellipse fill="none" cx="2.835" cy="12.756"  rx="2.835" ry="4.252"/>
</svg>
