<?xml version='1.0' encoding='utf-8'?>
<!-- Generator: Adobe Illustrator 20.0.0, SVG Export Plug-In . SVG Version: 6.00 Build 0)  -->
<svg xmlns="http://www.w3.org/2000/svg" xml:space="preserve" version="1.2" id="Layer_1" baseProfile="tiny" gorn="0" xmlns:xml="http://www.w3.org/XML/1998/namespace" width="1.37783in" viewBox="0 0 99.204 28.346" x="0px" y="0px"  height="0.393694in">
    <desc >
        <referenceFile >clip-side-white.svg</referenceFile>
    </desc>
    <path d="M97.777,20.672l-15.709,0.653l0.096-3.684l6.53-0.271c0.685-0.028,1.336-0.304,1.834-0.776l0.175-0.166l1.38,1.454l1.454-1.38l1.38,1.454l1.454-1.38l1.38,1.454l1.454-1.38l-0.069,2.643C99.116,20.038,98.522,20.641,97.777,20.672z" fill="#A0A0A0" />
    <path d="M82.717,17.901l6-0.249c0.713-0.029,1.396-0.282,1.954-0.719l1.391,1.465l1.454-1.379l1.379,1.454l1.454-1.38l1.38,1.455l0.872-0.828l-0.033,1.275c-0.012,0.445-0.37,0.809-0.815,0.827l-15.103,0.627L82.717,17.901z" fill="#DCDCDC" />
    <path d="M99.167,13.115l-1.38,1.454l-1.454-1.38l-1.38,1.454l-1.454-1.38l-1.38,1.454l-1.315-1.251c-0.09-0.086-0.206-0.14-0.33-0.153l-8.34-0.894l-0.096-3.684l15.828,1.697c0.706,0.076,1.247,0.662,1.266,1.372L99.167,13.115z" fill="#A0A0A0" />
    <path d="M91.196,13.339c-0.18-0.171-0.415-0.28-0.661-0.306l-7.846-0.841l-0.067-2.54l15.185,1.627c0.422,0.045,0.749,0.399,0.759,0.823l0.028,1.076l-0.828,0.872l-1.454-1.379l-1.38,1.454l-1.454-1.379L92.1,14.199L91.196,13.339z" fill="#DCDCDC" />
    <path d="M85.039,7.748c0-0.705-0.524-1.304-1.222-1.404C60.163,2.956,40.759,0,34.016,0C27.25,0,24.917,1.975,18.5,5.642C12.528,9.054,10.728,9.85,1.412,9.917C0.634,9.922,0,10.555,0,11.333v8.513c0,0.779,0.637,1.413,1.416,1.417c9.228,0.047,10.196,0.621,16.459,3.458c7.312,3.312,8.25,3.625,16.141,3.625c6.739,0,25.5-1.991,49.724-4.137c0.731-0.065,1.299-0.678,1.299-1.412V7.748z" fill="#999999" />
    <path d="M84.614,9.033c0-0.564-0.519-1.043-1.21-1.123C59.987,5.199,40.777,2.835,34.101,2.835c-6.698,0-9.008,1.58-15.361,4.513c-5.912,2.73-7.695,3.367-16.917,3.42c-0.77,0.004-1.398,0.511-1.398,1.133v6.811c0,0.624,0.63,1.13,1.402,1.133c9.136,0.038,10.094,0.497,16.294,2.767c7.239,2.65,8.167,2.9,15.979,2.9c6.672,0,25.245-1.593,49.227-3.31c0.724-0.052,1.286-0.542,1.286-1.13V9.033z" fill="#FFFFFF" />
    <ellipse id="connector0pin" gorn="0.7" cx="2.835" cy="15.591" fill="none" rx="2.835" ry="4.252" />
    <rect id="connector0terminal" gorn="0.8" width="0.01134" x="-0.00567" stroke="none" fill="none" y="15.5825" stroke-width="0"  height="0.017008"/>
</svg>
